/* XPM */
static char *result[] = {
/* columns rows colors chars-per-pixel */
"100 55 17 1 ",
"  c #0B0C0A",
". c #321E0F",
"X c #191627",
"o c #69001A",
"O c #61330B",
"+ c #74471A",
"@ c #595657",
"# c #9C0000",
"$ c #805125",
"% c #A66720",
"& c #E5AF19",
"* c #CB885E",
"= c #2B488D",
"- c #7E808F",
"; c #EFCEA4",
": c #B3B8D4",
"> c None",
/* pixels */
">>>>>>>>>>>>>>>>>>>>>>>>>>>>>>>>>>>>>>>>>>>>>>>>>>>>>>>>>>>>>>>>>>>>>>>>>>>>>>>>>>>>>>>>>>>>>>>>>>>>",
">>>>>>>>>>>>>>>>>>>>>>>>>>>>>>>>>>>>>>>>>>>>>>>>>>>>>>>>>>>>>>>>>>>>>>>>>>>>>>>>>>>>>>>>>>>>>>>>>>>>",
">>>>>>>>>>>>>>>>>>>>>>>>>>>>>>>>>>>>>>>>>>>>>>>>>>>>>>>>>>>>>>>>>>>>>>>>>>>>>>>>>>>>>>>>>>>>>>>>>>>>",
">>>>>>>>>>>>>>>>>>>>>>>>>>>>>>>>>>>>>>>>>>>>>>>>>>>>>>>>>>>>>>>>>>>>>>>>>>>>>>>>>>>>>>>>>>>>>>>>>>>>",
">>>>>>>>>>>>>>>>>>>>>>>>>>>>>>>>>>>>>>>>>>>>>>>>>>>>>>>>>>>>>>>>>>>>>>>>>>>>>>>>>>>>>>>>>>>>>>>>>>>>",
">>>>>>>>>>>>>>>>>>>>>>>>>>>>>>>>>>>>>>>>>>>>>>>>>>>>>>>>>>>>>>>>>>>>>>>>>>>>>>>>>>>>>>>>>>>>>>>>>>>>",
">>>>>>>>>>>>>>>>>>>>>>>>>>>>>>>>>>>>>>>>>>>>>>>>>>>>>>>>>>>>>>>>>>>>>>>>>>>>>>>>>>>>>>>>>>>>>>>>>>>>",
">>>>>>>>>>>>>>>>>>>>>>>>>>>>>>>>>>>>>>>>>>>>>>>>>>>>>>>>>>>>>>>>>>>>>>>>>>>>>>>>>>>>>>>>>>>>>>>>>>>>",
">>>>>>>>>>>>>>>>>>>>>>>>>>>>>>>>>>>>>>>>>>>>>>>>>>>>>>>>>>>>>>>>>>>>>>>>>>>>>>>>>>>>>>>>>>>>>>>>>>>>",
">>>>>>>>>>>>>>>>>>>>>>>>>>>>>>>>>>>>>>>>>>>>>>>>>>>>>>>>>>>>>>>>>>>>>>>>>>>>>>>>>>>>>>>>>>>>>>>>>>>>",
">>>>>>>>>>>>>>>>>>>>>>>>>>>>>>>>>>>>>>>>>>>>>>>>>>>>>>>>>>>>>>>>>>>>>>>>>>>>>>>>>>>>>>>>>>>>>>>>>>>>",
">>>>>>>>>>>>>>>>>>>>>>>>>>>>>>>>>>>>>>>>>>>>>>>>>>>>>>>>>>>>>>>>>>>>>>>>>>>>>>>>>>>>>>>>>>>>>>>>>>>>",
">>>>>>>>>>>>>>>>>>>>>>>>>>>>>>>>>>>>>>>>>>>>>>>>>>>>>>>>>>>>>>>>>>>>>>>>>>>>>>>>>>>>>>>>>>>>>>>>>>>>",
">>>>>>>>>>>>>>>>>>>>>>>>>>>>>>>>>>>>>>>>>>>>>>>>.....>>>>>>>>>>>>>>>>>>>>>>>>>>>>>>>>>>>>>>>>>>>>>>>",
">>>>>>>>>>>>>>>>>>>>>>>>>>>>>>>>>>>>>>>>>>>>>>>.X.....>>>>>>>>>>>>>>>>>>>>>>>>>>>>>>>>>>>>>>>>>>>>>>",
">>>>>>>>>>>>>>>>>>>>>>>>>>>>>>>>>>>>>>>>>>>>>>>..X;...>>>>>>>>>>>>>>>>>>>>>>>>>>>>>>>>>>>>>>>>>>>>>>",
">>>>>>>>>>>>>>>>>>>>>>>>>>>>>>>>>>>>>>>>>>>>>>>..;;;..>>>>>>>>>>>>>>>>>>>>>>>>>>>>>>>>>>>>>>>>>>>>>>",
">>>>>>>>>>>>>>>>>>>>>>>>>>>>>>>>>>>>>>>>>>>>>>>*.$%;%.>>>>>>>>>>>>>>>>>>>>>>>>>>>>>>>>>>>>>>>>>>>>>>",
">>>>>>>>>>>>>>>>>>>>>>>>>>>>>>>>>>>>>>>>>>>>>>>*;;;*;>>>>>>>>>>>>>>>>>>>>>>>>>>>>>>>>>>>>>>>>>>>>>>>",
">>>>>>>>>>>>>>>>>>>>>>>>>>>>>>>>>>>>>>>>>>>>>>>>*;**;->--->>>>>>>>>>>>>>>>>>>>>>>>>>>>>>>>>>>>>>>>>>",
">>>>>>>>>>>>>>>>>>>>>>>>>>>>>>>>>>>>>>>>>>>>>::##*;;#o-..-->>>>>>>>>>>>>>>>>>>>>>>>>>>>>>>>>>>>>>>>>",
">>>>>>>>>>>>>>>>>>>>>>>>>>>>>>>>>>>>>>>>>>>>::::#####o#-.:->>>>>>>>>>>>>>>>>>>>>>>>>>>>>>>>>>>>>>>>>",
">>>>>>>>>>>>>>>>>>>>>>>>>>>>>>>>>>>>>>>>>>>-::::ooooo##-.:=>>>>>>>>>>>>>>>>>>>>>>>>>>>>>>>>>>>>>>>>>",
">>>>>>>>>>>>>>>>>>>>>>>>>>>>>>>>>>>>>>>>>>>--::-#######XX:==>>>>>>>>>>>>>>>>>>>>>>>>>>>>>>>>>>>>>>>>",
">>>>>>>>>>>>>>>>>>>>>>>>>>>>>>>>>>>>>>>>>#-X---o#####ooXX:==>>>>>>>>>>>>>>>>>>>>>>>>>>>>>>>>>>>>>>>>",
">>>>>>>>>>>>>>>>>>>>>>>>>>>>>>>>>>>>>>####:-XXX.ooooo=XXX:==>>>>>>>>>>>>>>>>>>>>>>>>>>>>>>>>>>>>>>>>",
">>>>>>>>>>>>>>>>>>>>>>>>>>>>>>>>>>>>>####oo:::X..=====XXX-==>>>>>>>>>>>>>>>>>>>>>>>>>>>>>>>>>>>>>>>>",
">>>>>>>>>>>>>>>>>>>>>>>>>>>>>>>>>>>>>###oo>XXXX=..====>OX-=#>>>>>>>>>>>>>>>>>>>>>>>>>>>>>>>>>>>>>>>>",
">>>>>>>>>>>>>>>>>>>>>>>>>>>>>>>>>>>>>##oo>XXXX===..==>>>O-##>>>>>>>>>>>>>>>>>>>>>>>>>>>>>>>>>>>>>>>>",
">>>>>>>>>>>>>>>>>>>>>>>>>>>>>>>>>>>>>##oo>XXXX====..=>>>+--#>>>>>>>>>>>>>>>>>>>>>>>>>>>>>>>>>>>>>>>>",
">>>>>>>>>>>>>>>>>>>>>>>>>>>>>>>>>>>>>>###XXXX>=====.=>>>++-#>>>>>>>>>>>>>>>>>>>>>>>>>>>>>>>>>>>>>>>>",
">>>>>>>>>>>>>>>>>>>>>>>>>>>>>>>>>>>>>>>>XXXX>>.====-.>>>>+-#>>>>>>>>>>>>>>>>>>>>>>>>>>>>>>>>>>>>>>>>",
">>>>>>>>>>>>>>>>>>>>>>>>>>>>>>>>>>>>>>++XXX>>>=...-..>>>>>:#>>>>>>>>>>>>>>>>>>>>>>>>>>>>>>>>>>>>>>>>",
">>>>>>>>>>>>>>>>>>>>>>>>>>>>>>>>>>>>>>O+++>>>====X - >>>>>::>>>>>>>>>>>>>>>>>>>>>>>>>>>>>>>>>>>>>>>>",
">>>>>>>>>>>>>>>>>>>>>>>>>>>>>>>>>>>>>>OOO>>>>====XX   >>>>>:>>>>>>>>>>>>>>>>>>>>>>>>>>>>>>>>>>>>>>>>",
">>>>>>>>>>>>>>>>>>>>>>>>>>>>>>>>>>>>++&&>>>>>===XXX    >>>>>>>>>>>>>>>>>>>>>>>>>>>>>>>>>>>>>>>>>>>>>",
">>>>>>>>>>>>>>>>>>>>>>>>>>>>>>>>&&>+OO+>>>>>====XXX    >>>>>>>>>>>>>>>>>>>>>>>>>>>>>>>>>>>>>>>>>>>>>",
">>>>>>>>>>>>>>>>>>>>>>>>>>>>>>>>>&&.++>>>>>>===XXXX    @>>>>>>>>>>>>>>>>>>>>>>>>>>>>>>>>>>>>>>>>>>>>",
">>>>>>>>>>>>>>>>>>>>>>>>>>>>>>>>--&&OOO>>>>>XXXXXXX    @@>>>>>>>>>>>>>>>>>>>>>>>>>>>>>>>>>>>>>>>>>>>",
">>>>>>>>>>>>>>>>>>>>>>>>>>>>>>>::--&&O+OO>>>XXXXXXX    @@>>>>>>>>>>>>>>>>>>>>>>>>>>>>>>>>>>>>>>>>>>>",
">>>>>>>>>>>>>>>>>>>>>>>>>>>>>::::>>O&++OOO.++XXXXX>>    @>>>>>>>>>>>>>>>>>>>>>>>>>>>>>>>>>>>>>>>>>>>",
">>>>>>>>>>>>>>>>>>>>>>>>>>>::::>>>OOO+OOOO.+++XXXX>>     >>>>>>>>>>>>>>>>>>>>>>>>>>>>>>>>>>>>>>>>>>>",
">>>>>>>>>>>>>>>>>>>>>>>>>:::::>>>>OO>>>>O.++++XX--->>    >>>>>>>>>>>>>>>>>>>>>>>>>>>>>>>>>>>>>>>>>>>",
">>>>>>>>>>>>>>>>>>>>>>>:::::>>>>>>>>>>>>>.+++XX--::>>OOOOO>>>>>>>>>>>>>>>>>>>>>>>>>>>>>>>>>>>>>>>>>>",
">>>>>>>>>>>>>>>>>>>>>:::::>>>>>>>>>>>>>>>>+++XX-::>>OOOOOO>>>>>>>>>>>>>>>>>>>>>>>>>>>>>>>>>>>>>>>>>>",
">>>>>>>>>>>>>>>>>>>:::::>>>>>>>>>>>>>>>>>>+++>>>>>>>OO   >>>>>>>>>>>>>>>>>>>>>>>>>>>>>>>>>>>>>>>>>>>",
">>>>>>>>>>>>>>>>>::::>>>>>>>>>>>>>>>>>>>>>>>>>>>>>>>> ...>>>>>>>>>>>>>>>>>>>>>>>>>>>>>>>>>>>>>>>>>>>",
">>>>>>>>>>>>>>>>>>>>>>>>>>>>>>>>>>>>>>>>>>>>>>>>>>>>>....>>>>>>>>>>>>>>>>>>>>>>>>>>>>>>>>>>>>>>>>>>>",
">>>>>>>>>>>>>>>>>>>>>>>>>>>>>>>>>>>>>>>>>>>>>>>>>>>>>....>>>>>>>>>>>>>>>>>>>>>>>>>>>>>>>>>>>>>>>>>>>",
">>>>>>>>>>>>>>>>>>>>>>>>>>>>>>>>>>>>>>>>>>>>>>>>>>>>>>...>>>>>>>>>>>>>>>>>>>>>>>>>>>>>>>>>>>>>>>>>>>",
">>>>>>>>>>>>>>>>>>>>>>>>>>>>>>>>>>>>>>>>>>>>>>>>>>>>>>.OOO>>>>>>>>>>>>>>>>>>>>>>>>>>>>>>>>>>>>>>>>>>",
">>>>>>>>>>>>>>>>>>>>>>>>>>>>>>>>>>>>>>>>>>>>>>>>>>>>>>OO...>>>>>>>>>>>>>>>>>>>>>>>>>>>>>>>>>>>>>>>>>",
">>>>>>>>>>>>>>>>>>>>>>>>>>>>>>>>>>>>>>>>>>>>>>>>>>>>>>>.....>>>>>>>>>>>>>>>>>>>>>>>>>>>>>>>>>>>>>>>>",
">>>>>>>>>>>>>>>>>>>>>>>>>>>>>>>>>>>>>>>>>>>>>>>>>>>>>>>>>>>>>>>>>>>>>>>>>>>>>>>>>>>>>>>>>>>>>>>>>>>>",
">>>>>>>>>>>>>>>>>>>>>>>>>>>>>>>>>>>>>>>>>>>>>>>>>>>>>>>>>>>>>>>>>>>>>>>>>>>>>>>>>>>>>>>>>>>>>>>>>>>>"
};
