/* XPM */
static char *_eedce7f2eb14a72ddadd20f44faf1b3RAVc3ZGEBEoyj10x[] = {
/* columns rows colors chars-per-pixel */
"60 50 137 2 ",
"   c None",
".  c #E21664",
"X  c #E31966",
"o  c #E41D69",
"O  c #E5226D",
"+  c #E62670",
"@  c #E62B73",
"#  c #E82D75",
"$  c #E73077",
"%  c #E93177",
"&  c #E73378",
"*  c #E9357A",
"=  c #EB3A7E",
"-  c #FCAD7E",
";  c #FEBC7B",
":  c #FEC47A",
">  c #FFC97A",
",  c #EB3E81",
"<  c #EE4686",
"1  c #ED4987",
"2  c #ED4B8A",
"3  c #EE528E",
"4  c #F0558A",
"5  c #F0598C",
"6  c #EE5691",
"7  c #EF5B95",
"8  c #F05591",
"9  c #F05C96",
"0  c #F05F98",
"q  c #F26189",
"w  c #F26C8A",
"e  c #F47987",
"r  c #EE6197",
"t  c #EE639A",
"y  c #F16394",
"u  c #F0649B",
"i  c #F1699E",
"p  c #F47894",
"a  c #F16DA1",
"s  c #F273A4",
"d  c #F177A8",
"f  c #F37BAA",
"g  c #F79299",
"h  c #F89E9A",
"j  c #FAA480",
"k  c #FAA08C",
"l  c #F9A19A",
"z  c #FAAE9D",
"x  c #FBB39E",
"c  c #FDBE9F",
"v  c #F382AE",
"b  c #F486B1",
"n  c #F58CB4",
"m  c #F594BA",
"M  c #F593B9",
"N  c #F699BD",
"B  c #F69ABE",
"V  c #F69CBF",
"C  c #F69ABC",
"Z  c #FDCE84",
"A  c #FECC8A",
"S  c #FED28C",
"D  c #FBC39F",
"F  c #FFD594",
"G  c #FED19F",
"H  c #FFD99D",
"J  c #FECDA2",
"K  c #FED4A3",
"L  c #FFDBA3",
"P  c #F6A1C2",
"I  c #F5A2C3",
"U  c #F7A2C3",
"Y  c #F6A3C4",
"T  c #F7A5C5",
"R  c #F7A4C4",
"E  c #F7ABC9",
"W  c #F7ADCA",
"Q  c #F7AFCC",
"!  c #F8AECB",
"~  c #F8AAC8",
"^  c #F7B4CF",
"/  c #F8B0CC",
"(  c #F9BBD3",
")  c #F9BFD6",
"_  c #F9BED5",
"`  c #F9C1D7",
"'  c #FAC1D7",
"]  c #F9C2D7",
"[  c #F9C2D8",
"{  c #F9C6DA",
"}  c #FAC5D9",
"|  c #FAC9DC",
" . c #FACDDE",
".. c #FACFE0",
"X. c #FBD3E3",
"o. c #FBD6E5",
"O. c #FBD8E6",
"+. c #FCD9E7",
"@. c #FCDAE7",
"#. c #FCD9E6",
"$. c #FCDCE8",
"%. c #FCDCE9",
"&. c #FCDDE9",
"*. c #FCDDEA",
"=. c #FCDFEB",
"-. c #FCDEEA",
";. c #FCE2EC",
":. c #FCE3ED",
">. c #FDE4EE",
",. c #FDE6EF",
"<. c #FDE5EE",
"1. c #FDE7F0",
"2. c #FDE7F0",
"3. c #FDE9F1",
"4. c #FDEAF1",
"5. c #FDEAF2",
"6. c #FDEBF2",
"7. c #FDECF3",
"8. c #FEECF3",
"9. c #FDEEF4",
"0. c #FEEFF4",
"q. c #FDEDF3",
"w. c #FEF2F7",
"e. c #FEF5F9",
"r. c #FEF6F9",
"t. c #FEF6FA",
"y. c #FEF7FA",
"u. c #FFF7FA",
"i. c #FEF6F9",
"p. c #FFF9FC",
"a. c #FFFBFD",
"s. c #FFFCFD",
"d. c #FFFDFE",
"f. c #FFFEFE",
"g. c #FFFEFF",
"h. c white",
"j. c #FFFDFE",
/* pixels */
"                                                t t t t t t t t t t t                                                   ",
"                                        t t u i s d d a t t t t t t t t u u t 0                                         ",
"                                  r t d m ^ X.,.3.3.3.1.X.V s u t 3 2 6 u u u t t t t                                   ",
"                              t t s I { $.3.e.h.h.h.h.h.u.;.I d 6 @ + 2 0 u u u a t t u t                               ",
"                            u i s T +.e.h.h.h.h.h.h.h.h.h.h.' n 7 O X , 7 u u u 0 t u t t t                             ",
"                          r u s m w.h.h.h.h.h.h.h.h.h.h.h.h. .M 7 , + 2 7 u u u u u u u u u t                           ",
"                      t t u u M 8.h.h.h.h.h.h.h.h.h.h.h.h.h.W f u u u u u u u u u u u u u u t 0 0                       ",
"                    t u u u d ~ h.h.h.h.h.h.h.h.h.h.h.h.h.' v t u u u u u u u u u u u u a 0 u t 0 6                     ",
"                  t i v I b f I p.h.h.h.h.h.h.h.h.h.h.8./ f i u u u u u u u u u t t t t u t u t t 0 2                   ",
"                i v I | %.! v b [ 3.h.h.h.h.h.h.8.O.' T f i u u u u u u i u u t 7 3 2 < 2 6 0 t t u 6 2                 ",
"              t f W *.h.h.( v a b ' %.,.;.,.,.+.[ T b i u u u u u u u u t u u 7 < , @ + # , 3 9 u u t 2 2               ",
"            t i ` 9.h.h.e.M a u u u a f v b d i t u u u u u u u u u u u u u 0 $ . . . . . . o , 7 u u 6 2 2             ",
"            t W 6.h.h.p.B a u u u u u u u u i u u t t t u u u u u u u u t 6 $ . . . . . . . . o % u u u 2 < 2           ",
"          t t ..e.w.o.M a u u u u u u u u u u u u i t t u u u u u u u u 7 2 . . . . . . . . . . O < u u 8 2 <           ",
"        t t u m I B b s u t u u u u u u u u u u u t 3 < u u u u u u t t 6 , . . . . . . . . . . o & t u 9 2 < 2         ",
"        t t u a s i t 7 7 0 u u u u u u u u u u u 6 < @ 0 u u u t i t t 2 @ . . . . . . . . . . X + t u 0 6 < <         ",
"      t t u u u t t 7 2 < 6 0 t u u u u u u u u u 6 < + 7 t u u u u u u 2 $ . . . . . . . . . . . O u u u 8 < < 2       ",
"      t u u u u t 2 $ . . X , 7 u u u u u u u u u t u u t t u u u u u u 3 & . . . . . . . . . . o # u u u 9 < < 1       ",
"    t t u i u u 7 , . . . . + , u u u u u u u t u u u u u u u u u u u u 6 < . . . . . . . . . . o , u u 0 8 < < < 2     ",
"    t t u t u u 3 $ . . . . o , u u t u u u u t u u u u u u u u u u u u u 6 + . . . . . . . . o # 9 u u 0 8 < < < 2     ",
"    u a u u u u 6 , . . . . + , u i u u u u t t u u u u u u u u u u u u u 0 2 + . . . . . . o $ < u u u 8 < % , < <     ",
"  7 0 0 u u u u 0 < + . X o * 3 u u u t 7 7 6 6 6 0 u t u u u u u u u u u u 0 , @ o o o o o $ 2 0 t u u 8 * O * < < <   ",
"  2 9 t t u t t t 7 2 @ + , 6 u u u u 0 2 * + + $ < 6 t u u u u u u u u u u u u 6 , & $ & < 9 t u u u u 2 * O * < < 2   ",
"  < 6 0 t t i i t t t t t t u u u u 7 @ o . . . . X + 2 u u u u u u u u u u u u t t t t u u t t u u u 6 1 < < < < < 2 2 ",
"  < < 6 0 t t u 0 a 0 0 0 u u u t t $ o . . . . . . . O 7 t t t u u u u u u u u u u u u u u u u u u 9 < < < < < < < 1 2 ",
"2 < < < 2 6 u u 0 a 0 a u u u u t 6 o . . . . . . . . o < 0 u t u u u u a u u u u u u u u u u u u 6 2 < < < < < < < 1 2 ",
"6 < * # # * 6 0 a 0 a 0 u u u u u 2 o . . . . . . . . . * 0 u u u u u u 0 u u u u u u u u u u 9 8 2 < < < < < < 1 < 1 1 ",
"2 < + X . X , 9 0 0 0 0 u u u u t < X . . . . . . . . . $ 0 u u u u u u u u u u u u u u u 0 9 8 2 < < < < < < < 1 < < 1 ",
"2 , o . . . O < 9 0 a a 0 a u 0 0 2 o . . . . . . . . X * 0 t t u u u u u u u u u u u u 0 4 < < < 1 < < < < < 2 y 2 2 < ",
"2 < o . . . + < < < < 8 0 0 u a t 9 o X . . . . . . . X < t t t u 0 u u u u u u u 9 8 3 < < < < < < < < < u m 1.e.I u 1 ",
"2 < * # + # , < < < < < 2 2 8 6 7 0 , o X X . . . . o @ 9 u a u u a u 0 0 9 8 8 2 < * % # < < < < < < < v _ 8.p.h.n 6 2 ",
"  2 < , , , < < < < < < < 2 2 2 2 3 < $ o X . . . o @ < 9 7 7 6 8 8 8 3 3 2 2 < , # o o o @ = < < < < s ' 8.h.h.{ a 3 2 ",
"  2 < < < < < < < < < < < < 1 < < < 1 , % + O O O % , 4 4 8 8 8 < < < < < < < < # o . . . . % , < < 1 ~ 1.h.p.=.b 6 2   ",
"    < < < < < < < < < < < < < < < < < < < < , = , < < < < < , < < < < < < < < < O X . . . . # , < < 1 +.e.e.1.n 2 2     ",
"      2 2 < < < < < < < < < < < < < < < < < < < < < < < < < < < < < < < < < < < o X . . . . + = < < < B T n 9 < 2       ",
"          2 < < < < < < < < < < < < < < < < < < < < < < < < < < < < < < < < < < # o . . . . % , < < < 2 4 2 2           ",
"              2 < < < < < < < < < < < < , 3 , , < < < < < < < < < < < < < < < < , # O o o # , < < < < 2 2               ",
"                  2 < 1 1 1 1 < < < < < , , 3 3 < < < 1 < < 1 < < < < < < < < < < , * % % , < < 1 2 <                   ",
"                      3 2 4 5 5 4 1 8 , 8 , 3 , < < < < < < < < < < < < < < < < < 1 4 1 < < < < 2                       ",
"                            J z b p 0 8 8 8 , 3 < < < < < < < < < < < < < < 4 4 4 q w e w                               ",
"                            L L L L L L L L L K D x z l h h h h h k - - ; ; ; : : : : :                                 ",
"                            L L L L L L L L L L K K K K K K K K F > ; : > > > > > > > >                                 ",
"                            L L L L L L L L L L L L L L L L L L H Z > > > > > > > > > >                                 ",
"                            L L L L L L L L L L L L L L L L L L H Z > > > > > > > > > >                                 ",
"                            L L L L L L L L L L L L L L L L L L H > > > > > > > > > > >                                 ",
"                            L L L L L L L L L L L L L L L L L L S > > > > > > > > > > >                                 ",
"                            L L L L L L L L L L L L L L L L L F > > > > > > > > > > > >                                 ",
"                            L L L L L L L L L L L L L L L L S Z > > > > > > > > > > > >                                 ",
"                            L L L L L L L L L K L L H L H F Z Z > > Z > > Z > > > Z > Z                                 ",
"                              L H L H L H K L H L L H L L Z Z Z Z Z Z Z Z Z Z A Z Z Z Z                                 "
};
