/* XPM */
static char *_91d4293d8064aefeaaba0b0f94117ce8kTI6t43E4QuBtA8[] = {
/* columns rows colors chars-per-pixel */
"64 80 3 1 ",
"  c #000008",
". c #462823",
"X c #663931",
/* pixels */
"................................................................",
"................................................................",
"................................................................",
"................................................................",
"................................................................",
"................................................................",
"................................................................",
"................................................................",
"................................................................",
"................................................................",
"................................................................",
"................................................................",
"................................................................",
"................................................................",
"................................................................",
"................................................................",
"XXXX.XXXXXXX.XXXXXX.XXXXXXX.XXXXXXXXXXX.XXXXXXXXX.XXXXXXXX.XXXXX",
"XXXX.XXXXXXX.XXXXXX.XXXXXXX.XXXXXXXXXXX.XXXXXXXXX.XXXXXXXX.XXXXX",
"XXXX.XXXXXXX.XXXXXX.XXXXXXX.XXXXXXXXXXX.XXXXXXXXX.XXXXXXXX.XXXXX",
"XXXX.XXXXXXX.XXXXXX.XXXXXXX.XXXXXXXXXXX.XXXXXXXXX.XXXXXXXX.XXXXX",
"XXXX.XXXXXXX.XXXXXX.XXXXXXX.XXXXXXXXXXX.XXXXXXXXX.XXXXXXXX.XXXXX",
" XXX.XXXXXXX.XXXXXX.XXXXXXX.XXXXXXXXXXX.XXXXXXXXX.XXXXXXXX.XXXXX",
" XXX.XXXXXXX.XXXXXX.XXXXXXX.XXXXXXXXXXX.XXXXXXXXX.XXXXXXXX.XXXXX",
"  XX.XXXXXXX.XXXXXX.XXXXXXX.XXXXXXXXXXX.XXXXXXXXX.XXXXXXXX.XXXXX",
"  XX.XXXXXXX.XXXXXX.XXXXXXX.XXXXXXXXXXX.XXXXXXXXX.XXXXXXXX.XXXXX",
"                  X.XXXXXXX.XXXXXXXXXXX.XXXXXXXXX.XXXXXXXX.XXXXX",
"                  X.XXXXXXX.XXXXXXXXXXX.XXXXXXXXX.XXXXXXXX.XXXXX",
"                  X.XXXXXXX.XXXXXXXXXXX.XXXXXXXXX.XXXXXXXX.XXXXX",
"                  X.XXXXXXX.XXXXXXXXXXX.XXXXXXXXX.XXXXXXXX.XXXXX",
"                  X.XXXXXXX.XXXXXXXXXXX.XXXXXXXXX.XXXXXXXX.XXXXX",
"                  X.XXXXXXX.XXXXXXXXXXX.XXXXXXXXX.XXXXXXXX.XXXXX",
"  XX.XXXXXXX.XXXXXX.XXXXXXX.XXXXXXXXXXX.XXXXXXXXX.XXXXXXXX.XXXXX",
"  XX.XXXXXXX.XXXXXX.XXXXXXX.XXXXXXXXXXX.XXXXXXXXX.XXXXXXXX.XXXXX",
" XXX.XXXXXXX.XXXXXX.XXXXXXX.XXXXXXXXXXX.XXXXXXXXX.XXXXXXXX.XXXXX",
" XXX.XXXXXXX.XXXXXX.XXXXXXX.XXXXXXXXXXX.XXXXXXXXX.XXXXXXXX.XXXXX",
"XXXX.XXXXXXX.XXXXXX.XXXXXXX.XXXXXXXXXXX.XXXXXXXXX.XXXXXXXX.XXXXX",
"XXXX.XXXXXXX.XXXXXX.XXXXXXX.XXXXXXXXXXX.XXXXXXXXX.XXXXXXXX.XXXXX",
"XXXX.XXXXXXX.XXXXXX.XXXXXXX.XXXXXXXXXXX.XXXXXXXXX.XXXXXXXX.XXXXX",
"XXXX.XXXXXXX.XXXXXX.XXXXXXX.XXXXXXXXXXX.XXXXXXXXX.XXXXXXXX.XXXXX",
"XXXX.XXXXXXX.XXXXXX.XXXXXXX.XXXXXXXXXXX.XXXXXXXXX.XXXXXXXX.XXXXX",
"XXXX.XXXXXXX.XXXXXX.XXXXXXX.XXXXXXXXXXX.XXXXXXXXX.XXX  XXX.XXXXX",
"XXXX.XXXXXXX.XXXXXX.XXXXXXX.XXXXXXXXXXX.XXXXXXXXX.X      X.XXXXX",
"XXXX.XXXXXXX.XXXXXX.XXXXXXX.XXXXXXXXXXX.XXXXXXXXX.        .XXXXX",
"XXXX.XXXXXXX.XXXXXX.XXXXXXX.XXXXXXXXXXX.XXXXXXXXX.        .XXXXX",
"XXXX.XXXXXXX.XXXXXX.XXXXXXX.XXXXXXXXXXX.XXXXXXXXX          XXXXX",
"XXXX.XXXXXXX.XXXXXX.XXXXXXX.XXXXXXXXXXX.XXXXXXXXX          XXXXX",
"XXXX.XXXXXXX.XXXXXX.XXXXXXX.XXXXXXXXXXX.XXXXXXXXX.        .XXXXX",
"XXXX.XXXXXXX.XXXXXX.XXXXXXX.XXXXXXXXXXX.XXXXXXXXX.        .XXXXX",
"XXXX.XXXXXXX.XXXXXX.XXXXXXX.XXXXXXXXXXX.XXXXXXXXX.X      X.XXXXX",
"XXXX.XXXXXXX.XXXXXX.XXXXXXX.XXXXXXXXXXX.XXXXXXXXX.XX    XX.XXXXX",
"XXXX.XXXXXXX.XXXXXX.XXXXXXX.XXXXXXXXXXX.XXXXXXXXX.XX    XX.XXXXX",
"XXXX.XXXXXXX.XXXXXX.XXXXXXX.XXXXXXXXXXX.XXXXXXXXX.XX    XX.XXXXX",
"XXXX.XXXXXXX.XXXXXX.XXXXXXX.XXXXXXXXXXX.XXXXXXXXX.XX    XX.XXXXX",
"XXXX.XXXXXXX.XXXXXX.XXXXXXX.XXXXXXXXXXX.XXXXXXXXX.XX    XX.XXXXX",
"XXXX.XXXXXXX.XXXXXX.XXXXXXX.XXXXXXXXXXX.XXXXXXXXX.XX    XX.XXXXX",
"XXXX.XXXXXXX.XXXXXX.XXXXXXX.XXXXXXXXXXX.XXXXXXXXX.XX    XX.XXXXX",
"XXXX.XXXXXXX.XXXXXX.XXXXXXX.XXXXXXXXXXX.XXXXXXXXX.XX    XX.XXXXX",
"XXXX.XXXXXXX.XXXXXX.XXXXXXX.XXXXXXXXXXX.XXXXXXXXX.XX    XX.XXXXX",
"XXXX.XXXXXXX.XXXXXX.XXXXXXX.XXXXXXXXXXX.XXXXXXXXX.XXXXXXXX.XXXXX",
"XXXX.XXXXXXX.XXXXXX.XXXXXXX.XXXXXXXXXXX.XXXXXXXXX.XXXXXXXX.XXXXX",
"XXXX.XXXXXXX.XXXXXX.XXXXXXX.XXXXXXXXXXX.XXXXXXXXX.XXXXXXXX.XXXXX",
" XXX.XXXXXXX.XXXXXX.XXXXXXX.XXXXXXXXXXX.XXXXXXXXX.XXXXXXXX.XXXXX",
" XXX.XXXXXXX.XXXXXX.XXXXXXX.XXXXXXXXXXX.XXXXXXXXX.XXXXXXXX.XXXXX",
" XXX.XXXXXXX.XXXXXX.XXXXXXX.XXXXXXXXXXX.XXXXXXXXX.XXXXXXXX.XXXXX",
"  XX.XXXXXXX.XXXXXX.XXXXXXX.XXXXXXXXXXX.XXXXXXXXX.XXXXXXXX.XXXXX",
"  XX.XXXXXXX.XXXXXX.XXXXXXX.XXXXXXXXXXX.XXXXXXXXX.XXXXXXXX.XXXXX",
"                  X.XXXXXXX.XXXXXXXXXXX.XXXXXXXXX.XXXXXXXX.XXXXX",
"                  X.XXXXXXX.XXXXXXXXXXX.XXXXXXXXX.XXXXXXXX.XXXXX",
"                  X.XXXXXXX.XXXXXXXXXXX.XXXXXXXXX.XXXXXXXX.XXXXX",
"                  X.XXXXXXX.XXXXXXXXXXX.XXXXXXXXX.XXXXXXXX.XXXXX",
"                  X.XXXXXXX.XXXXXXXXXXX.XXXXXXXXX.XXXXXXXX.XXXXX",
"                  X.XXXXXXX.XXXXXXXXXXX.XXXXXXXXX.XXXXXXXX.XXXXX",
"  XX.XXXXXXX.XXXXXX.XXXXXXX.XXXXXXXXXXX.XXXXXXXXX.XXXXXXXX.XXXXX",
"  XX.XXXXXXX.XXXXXX.XXXXXXX.XXXXXXXXXXX.XXXXXXXXX.XXXXXXXX.XXXXX",
" XXX.XXXXXXX.XXXXXX.XXXXXXX.XXXXXXXXXXX.XXXXXXXXX.XXXXXXXX.XXXXX",
" XXX.XXXXXXX.XXXXXX.XXXXXXX.XXXXXXXXXXX.XXXXXXXXX.XXXXXXXX.XXXXX",
"XXXX.XXXXXXX.XXXXXX.XXXXXXX.XXXXXXXXXXX.XXXXXXXXX.XXXXXXXX.XXXXX",
"XXXX.XXXXXXX.XXXXXX.XXXXXXX.XXXXXXXXXXX.XXXXXXXXX.XXXXXXXX.XXXXX",
"XXXX.XXXXXXX.XXXXXX.XXXXXXX.XXXXXXXXXXX.XXXXXXXXX.XXXXXXXX.XXXXX",
"XXXX.XXXXXXX.XXXXXX.XXXXXXX.XXXXXXXXXXX.XXXXXXXXX.XXXXXXXX.XXXXX"
};
