/* XPM */
static char *b0826ff6b5844eacf0fb9182a3410c9682VE3WI9rtoJhuQk[] = {
/* columns rows colors chars-per-pixel */
"60 33 3 1 ",
"  c None",
". c black",
"X c #FBF236",
/* pixels */
"......................                                      ",
".XXXXXXXXXXXXXXXXXXXX.                                      ",
".XXXXXXXXXXXXXXXXXXXX.                                      ",
".XXXXXXXXXXXXXXXXXXXX.                                      ",
".XXX.............XXXX.                                      ",
".XXX.           .XXXX.                                      ",
".XXX.           .XXXX.                                      ",
".XXX.           .XXXX.                                      ",
".XXX.           .XXXX.                                      ",
".XXX.           .XXXX.                                      ",
".XXX.           .XXXX.                                      ",
".XXX.           .XXXX.                                      ",
".XXX.           .XXXX.                                      ",
".XXX.           .XXXX.......................................",
".XXX.           .XXXXXXXXXXXXXXXXXXXXXXXXXXXXXXXXXXXXXXXXXX.",
".XXX.           .XXXXXXXXXXXXXXXXXXXXXXXXXXXXXXXXXXXXXXXXXX.",
".XXX.           .XXXXXXXXXXXXXXXXXXXXXXXXXXXXXXXXXXXXXXXXXX.",
".XXX.           .XXXXXXXXXXXXXXXXXXXXXXXXXXXXXXXXXXXXXXXXXX.",
".XXX.           .XXXXXXXXXXXXXXXXXXXXXXXXXXXXXXXXXXXXXXXXXX.",
".XXX.           .XXXXXXXXXXXXXXXXXXXXXXXXXXXXXXXXXXXXXXXXXX.",
".XXX.           .XXXX.......................XXXX....XXXXXX..",
".XXX.           .XXXX.                     .XXXX.  .XXXXXX. ",
".XXX.           .XXXX.                     .XXXX.  .XXXXXX. ",
".XXX.           .XXXX.                     .XXXX.  .XXXXXX. ",
".XXX.           .XXXX.                     .XXXX.  .XXXXXX. ",
".XXX.           .XXXX.                     ...XX.  .XXXXXX. ",
".XXX.           .XXXX.                       .XX.  .XXXXXX. ",
".XXX.           .XXXX.                       .XX.  ...XXXX. ",
".XXX.............XXXX.                       .XX.    .XXXX. ",
".XXXXXXXXXXXXXXXXXXXX.                       .XX.    .XXXX. ",
".XXXXXXXXXXXXXXXXXXXX.                       ....    .XXXX. ",
".XXXXXXXXXXXXXXXXXXXX.                               .XXXX. ",
"......................                               ...... "
};
