/* XPM */
static char *_834bd9f12eb47c294c7924fb6fcbc0aWNm1Gpilsrz0zCzm[] = {
/* columns rows colors chars-per-pixel */
"100 60 209 2 ",
"   c None",
".  c #B3B2B7",
"X  c #B4B3B8",
"o  c #B5B4B8",
"O  c #B5B4B9",
"+  c #B6B5B9",
"@  c #B6B5BA",
"#  c #B7B5BA",
"$  c #B7B5BB",
"%  c #B7B6BA",
"&  c #B6B6BB",
"*  c #B7B6BB",
"=  c #B8B6BB",
"-  c #B8B7BB",
";  c #B8B7BC",
":  c #B8B8BC",
">  c #B9B8BC",
",  c #BAB8BD",
"<  c #BAB9BD",
"1  c #BBB9BD",
"2  c #BBBBBC",
"3  c #BAB9BE",
"4  c #BBB9BE",
"5  c #BBBABE",
"6  c #BBBABF",
"7  c #BBBBBF",
"8  c #BCBABE",
"9  c #BCBABF",
"0  c #BCBBBF",
"q  c #BDBCBF",
"w  c #BCBBC0",
"e  c #BDBBC0",
"r  c #BDBCC0",
"t  c #BEBCC1",
"y  c #BEBDC1",
"u  c #BFBDC1",
"i  c #BFBDC2",
"p  c #BFBEC2",
"a  c #BFBEC3",
"s  c #C0BEC2",
"d  c #C0BFC2",
"f  c #C0BEC3",
"g  c #C0BFC3",
"h  c #C1BFC3",
"j  c #C1BFC4",
"k  c #C1C0C3",
"l  c #C1C0C4",
"z  c #C1C0C5",
"x  c #C2C0C4",
"c  c #C2C1C4",
"v  c #C2C0C5",
"b  c #C2C1C5",
"n  c #C3C2C5",
"m  c #C3C2C6",
"M  c #C3C2C7",
"N  c #C4C2C6",
"B  c #C4C3C6",
"V  c #C4C3C7",
"C  c #C5C3C7",
"Z  c #C5C4C7",
"A  c #C5C4C8",
"S  c #C6C4C8",
"D  c #C6C5C8",
"F  c #C7C5C8",
"G  c #C6C5C9",
"H  c #C7C5C9",
"J  c #C7C6C9",
"K  c #C7C6CA",
"L  c #C8C6C9",
"P  c #C8C7C9",
"I  c #C8C6CA",
"U  c #C9C6CA",
"Y  c #C8C7CA",
"T  c #C9C7CA",
"R  c #C8C7CB",
"E  c #CAC6CB",
"W  c #C9C8CA",
"Q  c #C9C8CB",
"!  c #C9C9CB",
"~  c #CAC8CB",
"^  c #CAC9CB",
"/  c #CAC8CC",
"(  c #CAC9CC",
")  c #CBC9CC",
"_  c #CAC9CD",
"`  c #CBC9CD",
"'  c #CBCACC",
"]  c #CBCACD",
"[  c #CBCBCE",
"{  c #CCCACD",
"}  c #CCCBCD",
"|  c #CCCACE",
" . c #CCCBCE",
".. c #CDCBCE",
"X. c #CDCCCE",
"o. c #CDCCCF",
"O. c #CECCCE",
"+. c #CECCCF",
"@. c #CECDCF",
"#. c #CFCDCF",
"$. c #CFCDD0",
"%. c #CFCED0",
"&. c #CFCED1",
"*. c #D0CED0",
"=. c #D0CED1",
"-. c #D0CFD1",
";. c #D1CFD1",
":. c #D1CFD2",
">. c #D2D0D2",
",. c #D2D0D3",
"<. c #D2D1D3",
"1. c #D3D1D3",
"2. c #D3D0D4",
"3. c #D3D2D4",
"4. c #D4D2D4",
"5. c #D4D3D4",
"6. c #D4D2D5",
"7. c #D4D3D5",
"8. c #D5D3D5",
"9. c #D5D3D6",
"0. c #D5D4D5",
"q. c #D5D4D6",
"w. c #D6D4D6",
"e. c #D6D5D6",
"r. c #D6D4D7",
"t. c #D6D5D7",
"y. c #D7D5D7",
"u. c #D7D6D7",
"i. c #D8D6D7",
"p. c #D8D6D8",
"a. c #D8D7D8",
"s. c #D9D7D8",
"d. c #D9D7D9",
"f. c #D9D7DA",
"g. c #DBD7DB",
"h. c #DAD8D9",
"j. c #D9D8DA",
"k. c #DAD8DA",
"l. c #DAD9DA",
"z. c #DBD9DA",
"x. c #DAD9DB",
"c. c #DBD9DB",
"v. c #DADADA",
"b. c #DBDADB",
"n. c gray86",
"m. c #DDD9DB",
"M. c #DCDADB",
"N. c #DDDADB",
"B. c #DCDBDB",
"V. c #DDDBDB",
"C. c #DDD8DC",
"Z. c #DCD9DC",
"A. c #DCDADC",
"S. c #DDDADC",
"D. c #DCDBDC",
"F. c #DDDBDC",
"G. c #DDDBDD",
"H. c #DEDADC",
"J. c #DEDBDC",
"K. c #DEDBDD",
"L. c gainsboro",
"P. c #DDDCDC",
"I. c #DDDCDD",
"U. c #DEDCDC",
"Y. c #DEDCDD",
"T. c #DFDCDD",
"R. c #DEDDDD",
"E. c #DDDCDE",
"W. c #DEDCDE",
"Q. c #DFDCDE",
"!. c #DFDDDE",
"~. c #DFDEDF",
"^. c #E0DDDE",
"/. c #E1DEDE",
"(. c #E0DEDF",
"). c #E2DFDF",
"_. c #E0DEE0",
"`. c #E1DFE0",
"'. c #E1DFE1",
"]. c #E2DFE0",
"[. c #E3DFE1",
"{. c #E2E0E0",
"}. c #E2E0E1",
"|. c #E3E0E1",
" X c #E3E1E1",
".X c #E2E0E2",
"XX c #E3E0E2",
"oX c #E2E1E2",
"OX c #E3E1E2",
"+X c #E3E1E3",
"@X c #E3E2E3",
"#X c #E5E0E1",
"$X c #E4E1E2",
"%X c #E4E1E3",
"&X c #E4E2E2",
"*X c #E4E2E3",
"=X c #E5E2E3",
"-X c #E4E3E3",
";X c #E4E2E4",
":X c #E4E3E4",
">X c #E5E3E4",
",X c #E5E3E5",
"<X c #E6E3E4",
"1X c #E6E3E5",
"2X c #E5E4E4",
"3X c #E6E4E5",
"4X c #E6E4E6",
"5X c #E7E4E6",
"6X c #E7E5E6",
/* pixels */
"                                                                                                                                                                                                        ",
"                                                                                    OXOX3X3X3X3X3X3XOX=X                                                                                                ",
"                                                                                @X3X3X3X3X6X6X6X6X6X3X3X3X>X                                                                                            ",
"                                                                            =X>X3X6X6X6X6X6X6X6X6X6X6X3X3X3X3X>X                                                                                        ",
"                                                                          >X3X6X6X6X6X6X6X6X6X6X6X6X6X6X6X6X6X3X@X@X                                                                                    ",
"                                                                      OX>X3X6X6X6X6X6X6X6X6X6X6X6X6X6X6X6X6X6X6X>X>X>X                                                                                  ",
"                                                                      =X3X6X6X6X6X6X6X6X6X6X6X6X6X6X6X6X6X6X6X6X3X>X6X>X                                                                                ",
"                                                                    g.>X6X6X6X6X6X6X6X6X6X6X6X6X6X6X6X6X6X6X6X6X6X6X6X>X>X                                                                              ",
"                                                                  % x.3X6X6X6X6X6X6X6X6X6X6X6X6X6X6X6X6X6X6X6X6X6X6X6X6X3X                                                                              ",
"                                                                w % !.3X6X6X6X6X6X6X6X6X6X6X6X6X6X6X6X6X6X6X6X6X6X6X6X6X6X>X    ^.B.D.B.D.D.B.B.                                                        ",
"                                                              M . t ~.3X6X6X6X6X6X6X6X6X6X6X6X6X6X6X6X6X6X6X6X6X6X6X6X6X3X3X'.!.(.(.^.(.(.^.^.(.(.B.B.                                                  ",
"                                                              % X _ =X6X6X6X6X6X6X6X6X6X6X6X6X6X6X6X6X6X6X6X6X6X6X6X6X6X6X3X>Xg.D.(.D.(.(.(.D.(.(.(.^.D.^.                                              ",
"                                                            < X X q.3X3X3X6X6X6X6X6X6X6X6X6X6X6X6X6X6X6X6X6X6X6X6X6X6X6X6X6X6X<.D.(.(.D.(.(.(.(.D.^.D.(.D.(.D.                                          ",
"                                                          j % . X D.3X6X6X6X6X6X6X6X6X6X6X6X6X6X6X6X6X6X6X6X6X6X6X6X6X6X6X6X3Xx.4.B.(.^.^.D.^.D.(.(.^.(.(.D.(.D.B.                                      ",
"                                                          ; X X X ~.3X6X6X6X6X6X6X6X6X6X6X6X6X6X6X6X6X6X6X6X6X6X6X6X6X6X6X6X3X>XZ q.(.(.D.(.(.^.(.(.D.(.!.!.(.D.(.D.                                    ",
"                                                        < % X X 9 OX6X6X6X6X6X6X6X6X6X6X6X6X6X6X6X6X6X6X6X6X6X6X6X6X6X6X6X6X3X3XY X.g.D.^.(.(.D.^.D.^.(.!.!.!.!.(.D.D.                                  ",
"                                                      9 % X X X J =X3X3X6X6X6X6X6X6X6X6X6X6X6X6X6X6X6X6X6X6X6X6X6X6X6X6X6X6X6X6X4.J 3.D.!.!.!.!.!.!.!.!.!.!.!.!.D.(.D.                                  ",
"                                                      w X X X X <.3X6X3X6X6X6X6X6X6X6X6X6X6X6X6X6X6X6X6X6X6X6X6X6X6X6X6X6X6X6X6X~.j J g.!.!.!.!.!.!.!.!.!.!.!.!.(.(.(.D.                                ",
"                                                  >X3.t X X X X <.=X3X3X6X6X3X3X6X6X6X6X6X6X6X6X6X6X6X6X6X6X6X6X6X6X6X6X6X6X6X6X3XJ t ;.!.!.!.!.!.!.!.!.!.!.!.!.(.^.!.!.B.                              ",
"                                            OXOX3X3X3.t X X X X Z !.OX3X3X3X3X3X6X6X6X6X6X6X6X6X6X6X6X6X6X6X6X6X6X6X6X6X6X6X6X6X3X$.w A x.!.!.!.!.!.!.!.!.!.!.!.(.D.!.(.D.                              ",
"                                        OX=X3X6X6X6X$.; X X X X t B.!.!.!.(.OXOX3X3X3X6X3X3X6X6X6X6X6X6X6X6X6X6X6X6X6X6X6X6X6X6X6X!.M < _ !.!.!.!.!.!.!.!.!.!.!.(.(.(.^.!.B.                            ",
"                                      OX>X3X6X6X6X3XJ % X X X X % x.!.!.!.!.!.!.(.'.OX3X3X3X6X6X6X6X6X6X6X6X6X6X6X6X6X6X6X6X6X6X3X3XJ % j p.!.!.!.!.!.!.!.!.!.!.^.D.(.D.!.!.!.                          ",
"                                  -X3X3X6X6X6X6X3X>XJ X X X X X X 4.!.!.!.!.!.!.!.!.!.!.!.!.OXOX3X3X3X3X6X6X6X6X6X6X6X6X6X6X6X6X6X6X<.< ; M !.!.!.!.!.!.!.!.!.!.D.^.(.^.!.!.B.(.                        ",
"                                3X3X6X6X6X6X6X6X3XOXJ X X X X X X { B.!.!.!.!.!.!.!.!.!.!.!.!.!.'.(.OXOX3X3X6X6X6X6X6X6X6X6X6X6X6X3XD.J % = 3.!.!.!.!.!.!.!.!.!.(.(.(.D.!.(.(.B.!.                      ",
"                              3X3X3X6X6X6X6X6X6X6X!.M X X X X X X N x.!.!.!.!.!.!.!.!.!.!.!.!.!.!.!.!.(.(.!.OXOX3X3X3X3X3X3X3X6X6X6X>X$.X % a !.(.D.(.D.(.D.(.D.(.^.D.(.(.(.(.B.B.                      ",
"                            >X3X3X3X6X6X6X6X6X6X6Xx.j X X X X X X q g.!.!.!.!.!.!.!.!.!.!.!.!.!.!.!.!.!.!.!.!.(.!.OXOX=X3X3X6X6X6X6X6X4.w X % ;.D.^.(.^.(.^.(.^.(.D.^.(.^.D.^.(.(.g.                    ",
"                          >X6X6X6X6X6X6X6X6X6X6X3X4.t X X X X X X % q.(.!.!.!.!.!.!.!.!.!.!.!.!.!.!.!.!.!.!.!.!.!.!.(.(.(.OX>X>X>X>X5XD.J X X j D.(.(.(.^.D.(.(.(.(.(.(.(.D.^.D.D.^.                    ",
"                        =X6X6X6X6X6X6X6X6X6X6X6X6XX.< X X X X X X X <.D.!.!.!.!.!.!.!.!.!.!.!.!.!.!.!.!.!.!.!.!.!.!.!.!.!.!.!.'.'.=X[.(.$.X X % :.^.D.^.(.(.D.^.^.D.^.D.(.^.(.(.(.(.D.                  ",
"                        3X3X6X6X6X6X6X6X6X6X6X6X6XY % X X X X X X X { x.!.!.!.!.!.!.!.!.!.!.!.!.!.!.!.!.!.!.!.!.!.!.!.!.!.!.!.!.D.(.(.D.;.X X X N B.D.(.(.(.^.(.(.D.(.D.^.(.^.D.!.D.^.                  ",
"                      >X6X6X6X6X6X6X6X6X6X6X6X6X3XM X X X X X X X o N x.!.!.!.!.!.!.!.!.!.!.!.!.!.!.!.!.!.!.!.!.!.!.!.!.!.!.!.!.^.(.^.B.{ X X X = 4.D.(.D.^.D.(.(.^.(.^.D.(.(.(.!.!.!.B.                ",
"                    OX3X6X6X6X6X6X6X6X6X6X6X6X6X=XM . X X X X X X X q q.!.!.!.!.!.!.!.!.!.!.!.!.!.!.!.!.!.!.!.!.!.!.!.!.!.!.!.!.D.(.D.B.{ X X X X N g.(.(.(.(.D.^.D.(.(.(.D.^.D.!.!.(.B.                ",
"                    3X3X6X6X6X6X6X6X6X6X6X6X6X6XOXt X X X X X X X X % 4.!.!.!.!.!.!.!.!.!.!.!.!.!.!.!.!.!.!.!.!.!.!.!.!.!.!.!.!.^.(.(.B.{ X X X X X ;.B.D.^.(.^.(.(.D.^.(.^.(.(.!.!.!.(.                ",
"                  3X6X6X6X6X6X6X6X6X6X6X6X6X6X6X!.t X X X X X X X X X X.B.!.!.!.!.!.!.!.!.!.!.!.!.!.!.!.!.!.!.!.!.!.!.!.!.!.!.!.!.!.!.x.) X X X X X h q.V.(.(.!.!.!.!.!.!.!.!.!.(.^.D.^.g.              ",
"                OX3X6X6X6X6X6X6X6X6X6X6X6X6X6X6X4.w X X X X X X X X X Y g.!.!.!.!.!.!.!.!.!.!.!.!.!.!.!.!.!.!.!.!.!.!.!.!.!.!.!.!.!.!.x.) X X X X X % ~ x.!.!.!.!.!.!.!.!.!.!.!.(.D.(.(.D.              ",
"                3X3X6X6X6X6X6X6X6X6X6X6X6X6X6X6X$.< X X X X X X X X X M q.!.!.!.!.!.!.!.!.!.!.!.!.!.!.!.!.!.!.!.!.!.!.!.!.!.!.!.!.!.V.x.) X X X X X X q 4.!.!.!.!.!.!.!.!.!.!.!.(.^.(.(.(.              ",
"              >X3X3X6X6X6X6X6X6X6X6X6X6X6X6X6X6XJ ; X X X X X X X X X 9 <.!.!.!.!.!.!.!.!.!.!.!.!.!.!.!.!.!.!.!.!.!.!.!.!.!.!.!.!.!.(.x.) o X X X X . % ~ x.!.!.!.!.!.!.!.!.!.!.(.D.^.D.!.B.            ",
"            >X3X6X6X6X6X6X6X6X6X6X6X6X6X6X6X6X6XM X . X X X X X X X X = #.D.(.(.!.!.!.!.!.!.!.!.!.!.!.!.!.!.!.!.!.!.!.!.!.!.!.!.!.!.!.a._ X X X X X X X k <.(.!.!.!.!.!.!.!.!.!.(.^.D.^.(.(.            ",
"            @X3X6X6X6X6X6X6X6X6X6X6X6X6X6X6X6X3X< % X X X X X X X X X X ) B.D.^.!.!.!.!.!.!.!.!.!.!.!.!.!.!.!.!.!.!.!.!.!.!.!.!.!.!.!.x.~ X X X X X X X : _ B.!.!.!.!.!.!.!.!.!.(.D.(.(.^.(.            ",
"          @X3X6X6X6X6X6X6X6X6X6X6X6X6X6X6X6X3X@Xw X X X X X X X X X X X Z g.(.(.!.!.!.!.!.!.!.!.!.!.!.!.!.!.!.!.!.!.!.!.!.!.!.!.!.!.!.a.~ % X X X X X X X N q.!.!.!.!.!.!.!.!.!.(.^.(.(.D.(.D.          ",
"          3X3X6X6X6X6X6X6X6X6X6X6X6X6X6X6X6X3X'.< X X X X X X X X X X X h 4.D.^.!.!.!.!.!.!.!.!.!.!.!.!.!.!.!.!.!.!.!.!.!.!.!.!.!.!.!.g.~ . X X X X X X X 9 X.(.!.!.!.!.!.!.!.!.(.D.^.D.^.(.D.          ",
"          >X6X6X6X6X6X6X6X6X6X6X6X6X6X6X6X3X=Xi.< o . . X X X X X X X X 9 $.!.!.!.!.!.!.!.!.!.!.!.!.!.!.!.!.!.!.!.!.!.!.!.!.!.!.!.!.!.q.~ o X X X X X X X X M B.!.!.!.!.!.!.!.!.!.!.!.!.(.(.B.          ",
"        =X>X6X6X6X6X6X6X6X6X3X3X6X6X6X3X=X(.(.D.9 X % . X X X X X X X X % ~ !.!.!.!.!.!.!.!.!.!.!.!.!.!.!.!.!.!.!.!.!.!.!.!.!.!.!.!.!.g.~ . X X X X X X X X < X.!.!.!.!.!.!.!.!.!.!.!.!.D.^.^.D.        ",
"        3X6X6X6X6X6X6X6X6X6X6X3X3X>X'.(.!.!.!.!.Z % X X X X X X X X X X X N B.!.!.!.!.!.!.!.!.!.!.!.!.!.!.!.!.!.!.!.!.!.!.!.!.!.!.!.!.i.~ % . X X X X X X X % 9 V.!.!.!.!.!.!.!.!.!.!.!.(.(.(.D.        ",
"      OX3X6X6X6X6X6X6X3X6X6X>XOX'.!.!.!.!.!.!.!.;.9 X X X X X X X X X X X M 4.!.!.!.!.!.!.!.!.!.!.!.!.!.!.!.!.!.!.!.!.!.!.!.!.!.!.!.!.g.J . . X X X X X X X X % ;.!.!.!.!.!.!.!.!.!.!.!.D.(.(.B.        ",
"      OX3X6X6X6X3X6X6X=X=X(.(.!.!.!.!.!.!.!.!.!.B.t X X X X X X X X X X X q #.(.!.!.!.!.!.!.!.!.!.!.!.!.!.!.!.!.!.!.!.!.!.!.!.!.!.!.!.i.Y X X X X X X X X X X % h !.!.!.!.!.!.!.!.!.!.!.!.!.!.B.        ",
"      3X3X6X6X6X>X=XOX'.(.!.!.!.!.!.!.!.!.!.!.!.D.Y = X X X X X X X X X X < Y !.!.!.!.!.!.!.!.!.!.!.!.!.!.!.!.!.!.!.!.!.!.!.!.!.!.!.!.i.J X X X X X X X X X X X = q.!.!.!.!.!.!.!.!.!.!.!.!.!.!.!.      ",
"      3X6X>X>X=X'.(.!.!.!.!.!.!.!.!.!.!.!.!.!.!.!.X.9 X X X X X X X X X X % M B.!.!.!.!.!.!.!.!.!.!.!.!.!.!.!.!.!.!.!.!.!.!.!.!.!.!.(.q.J X X X X X X X X X X X X Y !.!.!.!.!.!.!.!.!.!.!.!.!.!.!.      ",
"    (.>X>XOX(.'.!.!.!.!.!.!.!.!.!.!.!.!.!.!.!.!.(.q.k X X X X X X X X X X X ; ) D.(.!.!.!.!.!.!.!.!.!.!.!.!.!.!.!.!.!.!.!.!.!.!.!.!.(.i.Z X X X X X X X X X X X X 9 x.!.!.!.!.!.!.!.!.!.!.!.!.!.!.      ",
"    (.(.(.(.(.(.(.^.D.(.(.(.(.^.!.!.!.!.!.!.!.!.!.x.J % X X X X X X X X X X % < <.V.!.!.!.!.!.!.!.!.!.!.!.!.!.!.!.!.!.!.!.!.!.!.!.!.!.i.Z X X X X X X X X X X X X X ;.B.!.!.!.!.!.!.!.!.!.!.!.!.x.      ",
"    B.(.D.^.^.D.(.D.^.(.^.D.(.D.!.!.!.!.!.!.!.!.!.!.X.< X X X X X X X X X X X X < g.!.!.!.!.!.!.!.!.!.!.!.!.!.!.!.!.!.!.!.!.!.!.!.!.!.q.F X X X X X X X X X X X X X N x.!.!.!.!.!.!.!.!.!.!.!.!.!.V.    ",
"    D.(.(.(.(.D.(.(.(.(.D.^.(.^.!.!.!.!.!.!.!.!.!.!.3.M X X X X X X X X X X X X . h !.!.!.!.!.!.!.!.!.!.!.!.!.!.!.!.!.!.!.!.!.!.(.!.(.q.Z X X X X X X X X X X X X X % g.!.!.!.!.!.!.!.!.!.!.!.!.!.B.    ",
"    (.(.D.^.(.^.^.D.^.D.(.(.(.D.!.!.!.!.!.!.!.!.!.!.B.~ o X X X X X X X X X X X X . Z D.!.!.!.!.!.!.!.!.!.!.!.!.!.!.!.!.!.!.!.!.(.V.(.i.Z X X X X X X X X X X X X X X Y x.!.!.!.!.!.!.!.!.!.!.!.!.!.    ",
"  B.^.(.^.D.(.(.D.^.D.^.(.(.(.^.!.!.!.!.!.!.!.!.!.!.!.#.9 o X X X X X X X X X X X X % Y x.!.!.!.!.!.!.!.!.!.!.!.!.!.!.!.!.!.!.!.!.!.!.q.Z X X X X X X X X X X X X X X = _ x.!.!.!.!.!.!.!.!.!.!.!.!.    ",
"  D.D.(.(.(.D.^.(.(.(.(.^.D.(.D.!.!.!.!.!.!.!.!.!.!.!.q.N X X X X X X X X X X X X X . % _ x.!.!.!.!.!.!.!.!.!.!.!.!.!.!.!.!.!.!.!.!.!.q.B X X X X X X X X X X X X X X X % < Y q.!.!.!.!.!.!.!.!.(.D.    ",
"  B.D.D.^.(.^.(.(.^.D.(.D.^.(.^.!.!.!.!.!.!.~.!.!.!.!.x.{ X X X X X X X X X X X X X . X < $.x.!.!.!.!.!.!.!.!.!.!.!.!.!.!.!.!.!.!.!.!.q.B X X X X X X X X X X X X X X X X % % < B &.V.!.!.!.!.!.(.B.B.  ",
"  !.(.(.D.(.D.(.(.D.^.(.(.(.(.D.!.!.!.!.!.x.3.&.{ Y N h 9 o X X X X X X X X X X X X X X . r $.n.!.!.!.!.!.!.!.!.!.!.!.!.!.!.(.x.q.X.~ k : X X X X X X X X X X X X X X X X X X % % < k X.x.!.!.!.!.D.B.  ",
"  !.!.!.!.!.!.!.(.^.(.(.D.B.q.4.&.%.! J B M a r < & & . . . . . X X X X X X X X . . . . . & a &.V.!.!.!.!.!.!.!.!.B.x.q.4.X.J M a q : & X X X X % . % . . ; . . X X X X X X X X X X . < B $.a.!.(.D.!.  ",
"  !.!.!.!.!.x.a.4.<.;.X.{ Y N M t r & % . . . . . % . . . . ; . X X X X X X X X . . % . % . % B <.!.!.!.!.x.a.3.;.{ Y B h < % o X X X X X X X X . . . . . . . . X X X X X X X X X . . % . r J &.g.B.B.  ",
"  x.x.i.q.5.$._ Y N h < % % % % & % % % % % % % ; % % % & & ; . % % % % % % % % % % % % ; % . & N a.x.x.a.<.~ B t < % % % % % % . & % & % & % & & & . & & ; % % % % % % . % % % % % % % % % & a Y 4.g.  ",
"  <.[ M k t t t t t q t t t t w t t r t t t t t t t a t t a t t w t t t r t t w t t t t r t a t k ~ <.~ k t t t t t t t t t t w a t t t q t t t a t a t t t a t t t t t t t t r t t t t t t t t q M Y   "
};
